<mxfile host="app.diagrams.net" modified="2024-05-07T00:52:27.970Z" agent="Mozilla/5.0 (Windows NT 10.0; Win64; x64) AppleWebKit/537.36 (KHTML, like Gecko) Chrome/124.0.0.0 Safari/537.36 Edg/124.0.0.0" version="24.3.1" etag="Ct2A5WA3kZtu_dST5hQQ" type="github">
  <diagram name="Page-1" id="Ksfc_kAOPQm2P9r3Qg-5">
    <mxGraphModel>
      <root>
        <mxCell id="0" />
        <mxCell id="1" parent="0" />
      </root>
    </mxGraphModel>
  </diagram>
</mxfile>
